<svg width="80" height="91" viewBox="0 0 80 91" fill="none" xmlns="http://www.w3.org/2000/svg">
<path d="M70.0185 78.2258L69.373 76.5527L68.9456 75.4271L68.9226 75.3756V75.3548L41.4266 3.62476C41.4156 3.6041 41.4156 3.58346 41.4046 3.57313C41.3937 3.5628 41.3926 3.55248 41.3926 3.54215H41.3816C41.3718 3.5215 41.3718 3.5215 41.3718 3.51117C41.3725 3.50557 41.3719 3.49986 41.37 3.4945C41.3681 3.48914 41.365 3.48428 41.3609 3.4802V3.46986C41.3532 3.45731 41.3494 3.443 41.3498 3.42855L41.3389 3.41824L40.0457 0.0413477L68.2881 26.6536C75.478 33.4329 79.6586 42.5376 79.98 52.1171C80.3014 61.6966 76.7396 71.032 70.0185 78.2258Z" fill="url(#paint0_linear_109_20)"/>
<path d="M39.957 0.0413477L38.6649 3.41824C38.6547 3.43798 38.647 3.45877 38.6419 3.4802C38.6412 3.48793 38.6377 3.49522 38.632 3.50084C38.6325 3.5153 38.6287 3.5296 38.6211 3.54215H38.6101L38.5871 3.62476H38.5761L11.1349 75.2207C11.1196 75.263 11.1013 75.3044 11.0801 75.3446C11.0709 75.3646 11.0632 75.3854 11.0571 75.4065V75.4169L11.0472 75.4271L9.98414 78.2154C6.09354 74.0533 3.22567 69.1335 1.58511 63.8068C-0.0554418 58.4803 -0.428248 52.8782 0.493285 47.4002V47.3794C0.503149 47.3691 0.503152 47.3691 0.503152 47.3588C1.81903 39.5123 5.74523 32.2621 11.7157 26.6536L39.9252 0.0723268L39.957 0.0413477Z" fill="url(#paint1_linear_109_20)"/>
<path d="M70.0185 78.2257C69.4596 78.8143 68.8908 79.3926 68.2881 79.9606C64.5768 83.4649 60.1675 86.2439 55.3133 88.1384C50.4592 90.0328 45.2559 91.0053 40.0018 90.9999V0L40.0457 0.0412846L41.3389 3.41818L41.3498 3.42848C41.3494 3.44294 41.3531 3.45724 41.3608 3.4698V3.48014C41.365 3.48422 41.368 3.48908 41.37 3.49444C41.3719 3.4998 41.3725 3.50551 41.3718 3.51111C41.3718 3.52144 41.3718 3.52144 41.3816 3.54209L41.4046 3.57307C41.4156 3.5834 41.4156 3.60404 41.4266 3.62469L68.9226 75.3548V75.3755L68.9456 75.4271L69.373 76.5527L70.0185 78.2257Z" fill="url(#paint2_linear_109_20)"/>
<path d="M40.0023 0V90.9999C34.7476 91.0094 29.5428 90.0388 24.6881 88.1441C19.8335 86.2495 15.4247 83.4682 11.716 79.9606C11.1122 79.3926 10.5433 78.8143 9.9844 78.2256V78.2153L11.0475 75.4271L11.0574 75.4168V75.4064C11.0634 75.3853 11.0711 75.3646 11.0804 75.3445C11.1015 75.3044 11.1199 75.263 11.1352 75.2205L38.5765 3.62469H38.5874C38.6021 3.5985 38.6135 3.57079 38.6214 3.54209C38.6289 3.52954 38.6328 3.51523 38.6323 3.50077C38.6379 3.49515 38.6414 3.48787 38.6422 3.48014C38.6472 3.45871 38.6549 3.43792 38.6651 3.41818L39.9573 0.0412846L40.0023 0Z" fill="url(#paint3_linear_109_20)"/>
<g style="mix-blend-mode:overlay">
<path d="M38.642 3.47598C38.6294 3.52593 38.6111 3.57439 38.5872 3.62053C38.4557 4.04393 38.128 5.0663 37.6337 6.56368C36.9553 8.55676 36.0238 11.4173 34.8172 14.8252C33.6346 18.2434 32.2088 22.2089 30.6526 26.4429C29.8635 28.5598 29.0514 30.7491 28.2295 32.9694C27.3867 35.1897 26.5307 37.4409 25.677 39.7025C23.9334 44.1946 22.2018 48.6868 20.5151 52.8795C18.8285 57.0722 17.2383 60.9861 15.8344 64.3319C14.4305 67.6778 13.226 70.4351 12.3942 72.3765C11.7586 73.8326 11.3191 74.8137 11.1339 75.2164L38.5751 3.62053C38.5922 3.57035 38.6146 3.52193 38.642 3.47598Z" fill="white"/>
</g>
<g style="mix-blend-mode:overlay">
<path d="M68.9228 75.3652C68.8034 75.1174 68.3321 74.0641 67.5978 72.3808C66.7759 70.4393 65.5484 67.6821 64.1566 64.3362C62.7647 60.9903 61.1647 57.0868 59.4879 52.8837C57.8111 48.6807 56.0565 44.1989 54.315 39.7067C53.4602 37.4451 52.6054 35.1939 51.7725 32.9736C50.9395 30.7534 50.1285 28.5641 49.3504 26.4471C47.7832 22.2131 46.3695 18.2476 45.1749 14.8294C43.9803 11.4112 43.0488 8.56105 42.3572 6.56797C41.8323 4.93633 41.4925 3.883 41.3818 3.54221C41.372 3.51123 41.361 3.50092 41.361 3.48026C41.3885 3.52605 41.4106 3.57451 41.4268 3.62482L68.9228 75.3652Z" fill="white"/>
</g>
<g style="mix-blend-mode:overlay">
<path d="M40.8786 45.221C40.8446 50.6116 40.8336 55.9919 40.758 61.0521C40.6824 66.1122 40.5388 70.8212 40.4621 74.859C40.3854 78.8968 40.1991 82.2737 40.1333 84.6282C40.0774 85.8054 40.0347 86.7349 40.0018 87.3648V3.06281C40.0347 2.4432 40.0457 2.10243 40.0457 2.10243C40.0457 2.10243 40.0994 3.44493 40.2101 5.79945C40.2758 8.16429 40.4512 11.5308 40.5279 15.5686C40.6046 19.6064 40.7361 24.3258 40.7909 29.3859C40.8128 31.9056 40.8336 34.5183 40.8567 37.1723C40.8567 39.8263 40.8676 42.5257 40.8786 45.221Z" fill="white"/>
</g>
<g style="mix-blend-mode:screen" opacity="0.4">
<path d="M39.9251 0.0680723C39.6402 0.429511 37.217 3.38299 33.4262 7.44143C32.4278 8.52575 31.3318 9.69267 30.1482 10.9112C28.9646 12.1298 27.7372 13.4206 26.422 14.7115C25.1069 16.0023 23.7699 17.3861 22.3671 18.7286C20.9642 20.0711 19.5384 21.4446 18.1148 22.8077C16.6561 24.1502 15.2095 25.4927 13.7847 26.8145C13.0735 27.4651 12.3721 28.1157 11.6816 28.756C11.046 29.3859 10.4202 30.0158 9.8295 30.6871C8.69014 31.9661 7.62199 33.3002 6.62936 34.6835C5.69781 36.0157 4.89777 37.3375 4.19637 38.5768C3.08267 40.6073 2.13026 42.713 1.34693 44.8761C1.07295 45.6713 0.83074 46.3012 0.699228 46.7349C0.602054 47.0551 0.536289 47.2616 0.50195 47.3546C1.81783 39.508 5.74402 32.2579 11.7145 26.6493L39.9251 0.0680723Z" fill="white"/>
</g>
<g style="mix-blend-mode:multiply" opacity="0.25">
<path d="M71.8282 78.5355L71.8501 78.6077L71.2912 79.1551L71.2254 79.217L71.5323 77.73L71.8282 78.5355Z" fill="black"/>
</g>
<g style="mix-blend-mode:multiply" opacity="0.25">
<path d="M70.0183 78.2257C69.4594 78.8143 68.8906 79.3926 68.2878 79.9606C62.7225 85.1968 55.6452 88.774 47.9374 90.2468C40.2298 91.7195 32.2326 91.0224 24.9423 88.2427C28.8326 89.4267 32.8799 90.0906 36.9659 90.2151C37.9851 90.2461 38.9923 90.2254 40.0016 90.1944C40.988 90.1428 42.051 90.0912 43.0155 89.9672C44.0018 89.8846 44.9991 89.7091 45.9844 89.5438C46.9608 89.358 47.9362 89.1514 48.9105 88.9139C49.8651 88.6557 50.8284 88.4182 51.772 88.0878C52.7145 87.7883 53.6351 87.4165 54.5436 87.0654C55.4544 86.6627 56.353 86.2909 57.2298 85.8468C58.1175 85.4338 58.9723 84.9381 59.8151 84.4631C60.6601 83.957 61.482 83.4407 62.27 82.883C63.058 82.3254 63.8383 81.7471 64.5945 81.1378L65.7113 80.2187L66.7754 79.248L67.0494 79.0105L67.147 78.9175L67.2785 78.7833L67.8056 78.2566L68.7481 77.2962L68.8139 77.2239C68.9991 76.9968 69.1854 76.7799 69.3728 76.5527C69.9975 75.8195 70.6222 75.0966 71.214 74.3531C71.8935 73.3204 72.6387 72.3187 73.2853 71.2654C73.8651 70.1811 74.5446 69.1381 75.0498 68.0228L75.783 66.3292L76.1567 65.4824C76.2663 65.2035 76.354 64.9041 76.4515 64.6149C76.8751 63.4623 77.2227 62.2863 77.4926 61.0935L77.8981 59.3069C78.0271 58.7097 78.1222 58.1064 78.1831 57.4997L78.4253 55.6822C78.4691 55.0729 78.4691 54.4533 78.5009 53.844C78.5119 53.2347 78.5678 52.6255 78.5458 52.0059L78.4253 50.178C78.3728 48.9487 78.2336 47.7239 78.0088 46.512L77.8773 45.6032C77.8116 45.3038 77.7348 45.0043 77.6581 44.7048L77.2077 42.9079C77.0602 42.3058 76.8739 41.7126 76.6499 41.1317L76.035 39.3658C75.5967 38.2092 75.0158 37.0939 74.5128 35.9477L72.6267 32.6637C71.8814 31.631 71.1592 30.5777 70.392 29.5554C69.5471 28.5846 68.7251 27.5933 67.8604 26.6225L65.1973 23.7414L68.2878 26.6535C75.4778 33.4329 79.6583 42.5375 79.9797 52.117C80.3011 61.6964 76.7394 71.0319 70.0183 78.2257Z" fill="black"/>
</g>
<defs>
<linearGradient id="paint0_linear_109_20" x1="44.8003" y1="1.37048" x2="96.8972" y2="28.4513" gradientUnits="userSpaceOnUse">
<stop stop-color="#FF0000"/>
<stop offset="0.238" stop-color="#00EFFC"/>
<stop offset="0.44" stop-color="#00E5F4"/>
<stop offset="0.629" stop-color="#00D3E7"/>
<stop offset="0.81" stop-color="#00BAD4"/>
<stop offset="0.983" stop-color="#009BBC"/>
<stop offset="1" stop-color="#0098BA"/>
</linearGradient>
<linearGradient id="paint1_linear_109_20" x1="37.7594" y1="-1.28761" x2="-18.2712" y2="26.712" gradientUnits="userSpaceOnUse">
<stop stop-color="#F804DE"/>
<stop offset="0.074" stop-color="#F803CC"/>
<stop offset="0.293" stop-color="#F9029D"/>
<stop offset="0.501" stop-color="#FA0178"/>
<stop offset="0.695" stop-color="#FB005D"/>
<stop offset="0.867" stop-color="#FB004D"/>
<stop offset="1" stop-color="#FC0048"/>
</linearGradient>
<linearGradient id="paint2_linear_109_20" x1="44.5944" y1="26.299" x2="83.3901" y2="49.9192" gradientUnits="userSpaceOnUse">
<stop stop-color="#FAFF00"/>
<stop offset="0.238" stop-color="#00EFFC"/>
<stop offset="0.44" stop-color="#00E5F4"/>
<stop offset="0.629" stop-color="#00D3E7"/>
<stop offset="0.81" stop-color="#00BAD4"/>
<stop offset="0.983" stop-color="#009BBC"/>
<stop offset="1" stop-color="#0098BA"/>
</linearGradient>
<linearGradient id="paint3_linear_109_20" x1="33.4283" y1="33.124" x2="-3.74574" y2="57.8226" gradientUnits="userSpaceOnUse">
<stop stop-color="#F804DE"/>
<stop offset="0.074" stop-color="#F803CC"/>
<stop offset="0.293" stop-color="#F9029D"/>
<stop offset="0.501" stop-color="#FA0178"/>
<stop offset="0.695" stop-color="#FB005D"/>
<stop offset="0.867" stop-color="#FB004D"/>
<stop offset="1" stop-color="#FC0048"/>
</linearGradient>
</defs>
</svg>
